<svg width="275" height="147" viewBox="0 0 275 147" fill="none" xmlns="http://www.w3.org/2000/svg">
<path d="M273.884 74.1009L223.617 1.70656C222.875 0.63756 221.656 1.55568e-08 220.355 1.54669e-08L200.547 1.40994e-08C199.156 1.40033e-08 197.865 0.728494 197.146 1.92023L170.792 45.6071C168.714 49.0521 163.419 47.5788 163.419 43.5555L163.419 3.97186C163.419 1.77826 161.641 1.14134e-08 159.447 1.12619e-08L101.885 7.28782e-09C100.593 7.19861e-09 99.3812 0.62865 98.6372 1.68527L0.731127 140.742C-1.12162 143.373 0.760505 147 3.97878 147L63.4072 147C64.7125 147 65.9345 146.359 66.676 145.284L108.752 84.3301C110.999 81.0743 116.105 82.7471 115.991 86.7016L114.36 142.913C114.295 145.151 116.092 147 118.33 147L161.046 147C162.508 147 163.851 146.197 164.544 144.91L183.746 109.23C185.702 105.596 191.215 106.986 191.215 111.113L191.215 143.028C191.215 145.222 192.994 147 195.187 147L224.207 147C225.506 147 226.724 146.364 227.466 145.298L273.881 78.6358C274.829 77.2733 274.83 75.4646 273.884 74.1009Z" fill="#FF4E4E"/>
</svg>
